<svg xmlns="http://www.w3.org/2000/svg" width="160" height="161" viewBox="0 0 160 161" version="1.1"><path d="M 59.500 4.667 C 55.100 6.608, 40.475 12.686, 27 18.175 C 13.525 23.664, 2.156 28.487, 1.736 28.892 C 0.519 30.065, 3.769 45.142, 7.641 56.281 C 11.726 68.035, 21.703 88.083, 28.899 99 C 34.657 107.736, 49.336 125.574, 51.892 126.942 C 54.116 128.132, 67.004 125.338, 66.990 123.668 C 66.985 123.026, 65.447 120.571, 63.573 118.213 C 55.493 108.050, 47.710 89.227, 44.051 71 C 41.420 57.892, 41.111 51.957, 43 50.855 C 45.145 49.605, 88.124 29.454, 90.386 28.638 C 92.099 28.021, 92.208 27.250, 91.574 20.250 C 91.189 16.010, 90.690 12.357, 90.465 12.132 C 89.870 11.537, 84.118 14.138, 52.924 29.104 L 25.003 42.500 25.001 49.119 C 24.999 58.765, 27.567 71.951, 31.471 82.345 C 33.351 87.350, 34.757 91.576, 34.596 91.737 C 34.002 92.331, 26.131 74.277, 24.116 67.699 C 22.971 63.959, 21.513 56.838, 20.877 51.875 C 19.913 44.362, 19.952 42.641, 21.110 41.593 C 21.874 40.900, 33.862 34.998, 47.750 28.478 C 64.037 20.832, 73 16.099, 73 15.144 C 73 14.330, 72.504 10.814, 71.897 7.332 C 70.583 -0.215, 70.575 -0.217, 59.500 4.667 M 116.333 19.667 C 116.700 20.033, 117.300 20.033, 117.667 19.667 C 118.033 19.300, 117.733 19, 117 19 C 116.267 19, 115.967 19.300, 116.333 19.667 M 51 49 C 50.175 49.533, 49.950 49.969, 50.500 49.969 C 51.050 49.969, 52.175 49.533, 53 49 C 53.825 48.467, 54.050 48.031, 53.500 48.031 C 52.950 48.031, 51.825 48.467, 51 49 M 53.674 51.779 L 47.847 54.374 48.550 60.437 C 49.596 69.471, 50.860 71.719, 50.937 64.684 C 51.014 57.624, 51.912 55.801, 57.202 51.969 C 62.140 48.392, 61.372 48.350, 53.674 51.779 M 45.029 51.961 C 44.220 52.473, 43.818 53.152, 44.136 53.470 C 44.455 53.788, 45.284 53.362, 45.980 52.524 C 47.423 50.786, 47.146 50.622, 45.029 51.961 M 17.513 95.314 C 15.738 99.563, 15.658 100.965, 17.076 103 C 17.848 104.108, 17.947 103.619, 17.454 101.125 C 17.034 99.002, 17.152 97.976, 17.771 98.359 C 18.768 98.975, 20.433 93.099, 19.520 92.187 C 19.248 91.915, 18.345 93.323, 17.513 95.314 M 119.430 120.113 C 117.355 123.470, 85.166 142, 81.410 142 C 80.752 142, 79.945 142.700, 79.617 143.555 C 78.644 146.092, 85.384 148.286, 95.687 148.787 C 110.250 149.494, 120.466 145.590, 133.750 134.242 C 136.637 131.775, 139 129.208, 139 128.537 C 139 127.866, 137.274 126.799, 135.164 126.167 C 133.054 125.535, 129.341 123.672, 126.914 122.027 C 122.147 118.797, 120.503 118.377, 119.430 120.113 M 73.974 155.345 C 73.685 155.642, 71.313 155.995, 68.704 156.130 C 60.564 156.552, 64.086 158.453, 74.581 159.304 C 87.364 160.340, 142.247 159.521, 144.499 158.260 C 146.103 157.363, 146.094 157.243, 144.359 156.481 C 142.299 155.575, 74.811 154.486, 73.974 155.345" stroke="none" fill="#06abdc" fill-rule="evenodd"/><path d="M 122.639 18.694 C 122.465 18.868, 120.338 19.188, 117.911 19.406 C 115.485 19.623, 113.136 19.846, 112.691 19.901 C 110.673 20.149, 113.410 22.001, 115.809 22.011 C 125.693 22.051, 138.557 29.818, 142.797 38.307 C 148.026 48.779, 146.130 60.417, 136.885 74.578 C 118.243 103.136, 78.702 128.364, 48.960 130.678 C 31.543 132.032, 19.554 123.844, 18.078 109.585 C 17.417 103.199, 16.620 101.047, 15.377 102.290 C 15.034 102.632, 14.538 106.870, 14.274 111.706 C 13.867 119.145, 14.138 121.412, 16.031 126.418 C 18.898 133.997, 25.061 140.119, 32.779 143.053 C 40.980 146.170, 56.006 145.947, 69.574 142.508 C 106.532 133.140, 145.150 98.741, 156.588 65 C 159.408 56.679, 159.171 42.035, 156.114 35.779 C 153.356 30.136, 147.389 24.502, 141.330 21.822 C 137.510 20.132, 123.539 17.794, 122.639 18.694 M 101 27.165 C 97.425 28.823, 87.975 33.003, 80 36.452 C 61.456 44.472, 47.942 50.898, 45.877 52.680 C 44.042 54.263, 44.181 57.913, 46.615 72 C 49.357 87.875, 55.368 103.040, 64.374 116.805 C 68.291 122.792, 68.668 123.085, 71.819 122.607 C 80.418 121.302, 110.765 101.419, 110.253 97.426 C 110.117 96.367, 109.283 91, 108.400 85.500 C 106.542 73.923, 107.011 52.981, 109.497 36.587 C 110.324 31.135, 111 26.073, 111 25.337 C 111 23.317, 108.182 23.832, 101 27.165 M 53.674 51.779 L 47.847 54.374 48.550 60.437 C 49.596 69.471, 50.860 71.719, 50.937 64.684 C 51.014 57.624, 51.912 55.801, 57.202 51.969 C 62.140 48.392, 61.372 48.350, 53.674 51.779 M 71.651 54.708 C 70.259 55.067, 69.927 55.838, 70.307 57.827 C 70.717 59.973, 70.079 61.097, 66.906 63.812 C 63.439 66.780, 63 67.661, 63 71.655 C 63 75.294, 63.559 76.712, 65.923 79.077 C 67.531 80.685, 69.893 82.067, 71.173 82.148 C 72.453 82.229, 74.391 82.342, 75.481 82.398 C 77.597 82.507, 79.619 85.843, 80.629 90.894 C 81.379 94.647, 79.598 95.045, 75.718 91.993 C 73.663 90.377, 72.656 90.180, 70.543 90.984 C 68.327 91.826, 68.082 92.285, 68.967 93.939 C 70.714 97.203, 74.212 99, 78.816 99 C 82.346 99, 83.288 99.385, 83.710 101 C 84.319 103.329, 84.137 103.279, 87.435 102.025 C 88.982 101.437, 90 100.273, 90 99.093 C 90 98.017, 91.291 96.217, 92.868 95.094 C 101.960 88.620, 97.656 75, 86.517 75 C 82.257 75, 82.163 74.926, 80.597 70.330 C 78.852 65.209, 79.192 63.923, 81.798 65.792 C 84.801 67.946, 85.603 68.101, 88.347 67.058 C 90.742 66.148, 90.900 65.812, 89.779 64.017 C 88.223 61.527, 83.084 59, 79.574 59 C 77.696 59, 76.681 58.290, 76 56.500 C 75.030 53.948, 74.865 53.880, 71.651 54.708 M 70.200 68.200 C 67.514 70.886, 69.480 76, 73.200 76 C 75.230 76, 75.543 73.559, 74.025 69.565 C 72.948 66.732, 72.004 66.396, 70.200 68.200 M 85.006 82.684 C 85.009 83.133, 85.487 85.215, 86.069 87.311 C 86.831 90.054, 87.600 91.031, 88.814 90.797 C 90.059 90.558, 90.500 89.430, 90.500 86.486 C 90.500 82.881, 90.237 82.470, 87.750 82.184 C 86.237 82.010, 85.003 82.235, 85.006 82.684 M 17.079 99.583 C 17.127 100.748, 17.364 100.985, 17.683 100.188 C 17.972 99.466, 17.936 98.603, 17.604 98.271 C 17.272 97.939, 17.036 98.529, 17.079 99.583 M 116.405 122.155 C 115.962 122.870, 116.130 123.038, 116.845 122.595 C 117.998 121.883, 118.393 121, 117.559 121 C 117.316 121, 116.797 121.520, 116.405 122.155 M 78 143.941 C 78 144.459, 78.375 145.114, 78.833 145.397 C 79.292 145.680, 79.667 145.257, 79.667 144.456 C 79.667 143.655, 79.292 143, 78.833 143 C 78.375 143, 78 143.423, 78 143.941 M 62.333 157.667 C 62.700 158.033, 63.300 158.033, 63.667 157.667 C 64.033 157.300, 63.733 157, 63 157 C 62.267 157, 61.967 157.300, 62.333 157.667" stroke="none" fill="#046db5" fill-rule="evenodd"/></svg>